<svg id="Componente_2_1" data-name="Componente 2 – 1" xmlns="http://www.w3.org/2000/svg" width="258.8" height="146.017" viewBox="0 0 258.8 146.017">
  <defs>
    <style>
      .cls-1 {
        fill: #1a1a1a;
      }

      .cls-2 {
        fill: #fafafa;
      }
    </style>
  </defs>
  <g id="Grupo_16364" data-name="Grupo 16364">
    <path id="Caminho_3459" data-name="Caminho 3459" class="cls-1" d="M199.969,72.068l-.063,40.865-20.053-.035.053-35.69a71.573,71.573,0,0,1,20.062-5.139m.059-36.951-.045,34.345a77.942,77.942,0,0,0-20.076,4.91l.063-39.279Zm44.648,39.036c.036,2.075.053,4.364.047,6.843l-.053,32-18.943-.028.008-5.68a11.888,11.888,0,0,1-11.349,6.812,16.533,16.533,0,0,1-9.373-2.87q-4.242-2.86-4.246-12.526l.012-5.251q0-7.149,2.286-9.735c1.518-1.743,5.252-3.753,11.253-6.038,6.388-2.5,9.811-4.169,10.273-5.038a4.333,4.333,0,0,0,.353-1.059,178.769,178.769,0,0,1,19.732,2.567M200.818,69.36c.022-4.818.607-8.548,1.729-11.188,1.153-2.665,3.451-5.049,6.892-7.094s7.9-3.05,13.39-3.044c6.608.014,11.557,1.184,14.895,3.5a13.57,13.57,0,0,1,6.028,8.574,77.773,77.773,0,0,1,.866,11.37,181.621,181.621,0,0,0-19.375-2.487c.028-.5.035-1.042.035-1.625,0-3.328-.251-5.518-.746-6.52a2.571,2.571,0,0,0-2.483-1.533c-1.328,0-2.141.427-2.463,1.286s-.475,3.044-.485,6.612v1.459a126.472,126.472,0,0,0-18.283.687m18.267,4.525L200.8,73.859l.014-1.893a122.846,122.846,0,0,1,18.281-.7Zm6.168,8.752c-3.127,2.277-4.944,4.176-5.443,5.719a22.994,22.994,0,0,0-.754,6.633c0,3.291.214,5.425.636,6.387a2.542,2.542,0,0,0,2.579,1.455,2.413,2.413,0,0,0,2.39-1.13c.365-.76.566-2.737.574-5.935Zm41.358-3.99-.024,16.233c-.012,3.428.183,5.607.583,6.57a2.339,2.339,0,0,0,2.375,1.457,2.268,2.268,0,0,0,2.392-1.5c.381-.995.572-3.375.572-7.162l.025-14.621c2.349.366,4.695.689,7.012.989a35.781,35.781,0,0,0,2.343,11.548,34.069,34.069,0,0,0,6.851,10.984,30.706,30.706,0,0,0,2.363,2.3l-.078.3a10.857,10.857,0,0,1-4.416,5.946,13.6,13.6,0,0,1-8.254,2.516,13.9,13.9,0,0,1-6.383-1.5,16.781,16.781,0,0,1-5.41-4.468l-1.269,4.8L247.071,113l.055-38.381q3.436.678,7.065,1.511,6.238,1.439,12.42,2.516m5.944-11.258c0-3.3-.206-5.462-.617-6.459a2.394,2.394,0,0,0-2.461-1.535,2.211,2.211,0,0,0-2.312,1.322c-.36.891-.53,3.1-.534,6.661l-.02,8.609c-3.921-.7-7.876-1.494-11.834-2.412-2.614-.6-5.164-1.149-7.645-1.619l.063-36.756,19.483.025-.025,18.41a15.98,15.98,0,0,1,5.372-4.162,15.242,15.242,0,0,1,6.433-1.349,17.487,17.487,0,0,1,6.947,1.259,10.064,10.064,0,0,1,4.49,3.518,11.186,11.186,0,0,1,1.687,3.683,25.869,25.869,0,0,0-4.749,3.988,26.81,26.81,0,0,0-5.413,8.622,28.068,28.068,0,0,0-1.868,8.781c-2.314-.3-4.655-.623-7.01-.993ZM356.28,80.941l-.043,32.236-20.068-.029.018-12.223a34.058,34.058,0,0,0,4.918-8.667,35.427,35.427,0,0,0,2.31-10.1c5.358-.384,9.723-.846,12.865-1.22m.071-45.568-.057,42.937c-3.08.376-7.429.832-12.769,1.22V78.157h-1.243l-6.048-.017.061-42.8Z" transform="translate(-114.529 -22.347)"/>
    <path id="Caminho_3460" data-name="Caminho 3460" class="cls-2" d="M478.759,112.292a11.128,11.128,0,0,0,2.921,7.647,9.074,9.074,0,0,0,13.523.028,11.224,11.224,0,0,0,2.948-7.642,18.673,18.673,0,0,0-4.887-12.762,15.491,15.491,0,0,0-22.851-.251l-.212.215a18.63,18.63,0,0,0-4.928,12.746,26.146,26.146,0,0,0,6.853,17.866c.406.427.8.83,1.224,1.218a21.9,21.9,0,0,0,31.374-1.163,24.858,24.858,0,0,0,3.84-5.4,26.667,26.667,0,0,0,3.064-12.454l3.785.008h3.8a33.656,33.656,0,0,1-8.959,22.985,29.5,29.5,0,0,1-43.672-.066,33.624,33.624,0,0,1-8.878-23.015,26.085,26.085,0,0,1,6.977-17.871,23.066,23.066,0,0,1,34.134.051,26.2,26.2,0,0,1,6.912,17.9,18.4,18.4,0,0,1-6.488,14.2,16.618,16.618,0,0,1-10.823,3.992,16.382,16.382,0,0,1-5.488-.948,17.194,17.194,0,0,1-6.8-4.507,18.751,18.751,0,0,1-4.952-12.785l3.791,0h.5Z" transform="translate(-291.46 -55.311)"/>
    <g id="Grupo_16359" data-name="Grupo 16359" transform="translate(0 12.746)">
      <path id="Caminho_3461" data-name="Caminho 3461" class="cls-2" d="M53.664,117.568l36.5.052-.042,13.193-5.963-.007q6.724,2.911,6.715,11.3c0,3.465-.975,6.121-2.888,8.013-1.936,1.9-4.712,2.833-8.283,2.83l-26.081-.045.024-14.252,22.957.028a5.845,5.845,0,0,0,3.044-.573,2.613,2.613,0,0,0,.871-2.312,3.807,3.807,0,0,0-1.3-2.975,5.45,5.45,0,0,0-3.678-1.142l-21.874-.035Z" transform="translate(-34.146 -87.612)"/>
      <path id="Caminho_3462" data-name="Caminho 3462" class="cls-2" d="M32.722,35.093l9.293.014L42,42.349l13.455.021c1.836.021,2.937-.33,3.285-1.024a4.8,4.8,0,0,0,.512-2.125,16.663,16.663,0,0,0-.6-4.086l10.171.014a42.257,42.257,0,0,1,.832,8.28c-.014,4.382-.961,7.625-2.866,9.676s-4.915,3.076-9.028,3.073l-4.249-.035L41.97,56.123v5.437l-9.279-.011V56.095L20.834,55.88l-.205-13.548,12.083.014Z" transform="translate(-13.136 -35.093)"/>
      <path id="Caminho_3463" data-name="Caminho 3463" class="cls-2" d="M92.819,330.62l0,.021Z" transform="translate(-59.104 -223.281)"/>
      <path id="Caminho_3464" data-name="Caminho 3464" class="cls-2" d="M38.443,243.854c.352.333.756.736,1.163,1.177h.021a18.616,18.616,0,0,1,5.061,11.992,16.64,16.64,0,0,1-4.475,11.922l-3.257-2.531,3.233,2.556c-.317.34-.648.656-.989.979a19.827,19.827,0,0,1-14.183,5.021,22.157,22.157,0,0,1-14.117-5.7l-.115-.094c-.606-.57-1.177-1.125-1.672-1.67a25.972,25.972,0,0,1-7.088-16.787,23.04,23.04,0,0,1,6.207-16.561l.024-.011c.446-.462.9-.927,1.372-1.371a27.565,27.565,0,0,1,19.7-6.961,30.862,30.862,0,0,1,19.889,8.128q1.191,1.084,2.163,2.146a33.536,33.536,0,0,1,9.129,21.564,29.591,29.591,0,0,1-7.955,21.21c-.55.594-1.17,1.184-1.78,1.771a35.279,35.279,0,0,1-25.228,8.9A39.759,39.759,0,0,1,0,279.066l3.034-2.75,3.027-2.764.031.031A30.875,30.875,0,0,0,25.848,281.7a26.33,26.33,0,0,0,18.861-6.6c.474-.42.909-.857,1.341-1.316a22.219,22.219,0,0,0,5.921-15.916,25.991,25.991,0,0,0-7.123-16.728c-.575-.607-1.111-1.163-1.682-1.68a21.955,21.955,0,0,0-14.131-5.823A18.592,18.592,0,0,0,15.688,238.3a13.169,13.169,0,0,0-.94.927,15.611,15.611,0,0,0-4.194,11.256,18.647,18.647,0,0,0,5.078,11.961c.425.441.808.84,1.208,1.2l.181.163a13.165,13.165,0,0,0,8.293,3.34,11.027,11.027,0,0,0,7.848-2.726c.191-.18.362-.358.55-.538a9.4,9.4,0,0,0,2.452-6.645A11.15,11.15,0,0,0,33.1,250.09H33.1a3.387,3.387,0,0,0-.335-.344c-.108-.122-.247-.236-.39-.378l3.013-2.76Z" transform="translate(0 -156.53)"/>
    </g>
    <g id="Grupo_16360" data-name="Grupo 16360" transform="translate(244.494)">
      <path id="Caminho_3465" data-name="Caminho 3465" class="cls-2" d="M687.453,6.941A7.156,7.156,0,1,1,680.321,0,6.984,6.984,0,0,1,687.453,6.941Zm-12.525,0a5.387,5.387,0,0,0,5.435,5.545,5.319,5.319,0,0,0,5.307-5.5,5.374,5.374,0,1,0-10.742-.045Zm4.29,3.643H677.6V3.643a14.067,14.067,0,0,1,2.676-.214,4.346,4.346,0,0,1,2.42.51,1.918,1.918,0,0,1,.678,1.523,1.776,1.776,0,0,1-1.442,1.606v.086a2.051,2.051,0,0,1,1.272,1.692,5.277,5.277,0,0,0,.511,1.737h-1.742a6.045,6.045,0,0,1-.553-1.7c-.125-.762-.55-1.1-1.442-1.1h-.764Zm.041-3.936h.764c.892,0,1.614-.3,1.614-1.017,0-.634-.467-1.058-1.487-1.058a3.962,3.962,0,0,0-.892.082Z" transform="translate(-673.147)"/>
    </g>
    <g id="Grupo_16363" data-name="Grupo 16363" transform="translate(65.325 95.568)">
      <g id="Grupo_16361" data-name="Grupo 16361">
        <path id="Caminho_3466" data-name="Caminho 3466" class="cls-1" d="M179.854,301.456V265.662h10.907a22.892,22.892,0,0,1,5.733.571,8.609,8.609,0,0,1,3.537,1.835,10.275,10.275,0,0,1,2.736,4.155,17.259,17.259,0,0,1,.9,5.881q0,6-2.628,9.2t-7.577,3.2h-5.093v10.96Zm8.514-19.707H191.1q2.663,0,3.563-.8a3.686,3.686,0,0,0,.9-2.843,3.823,3.823,0,0,0-.864-2.868q-.864-.8-3.6-.8h-2.736Z" transform="translate(-179.854 -264.738)"/>
        <path id="Caminho_3467" data-name="Caminho 3467" class="cls-1" d="M236.921,301.456l9.323-35.794h8.622l9.323,35.794h-8.441l-.99-4.738h-8.441l-1.026,4.738Zm10.943-12.247h5.346l-2.646-12.393Z" transform="translate(-216.194 -264.738)"/>
        <path id="Caminho_3468" data-name="Caminho 3468" class="cls-1" d="M328.812,285.962h8.063q-.361,7.071-3.689,10.971a11.244,11.244,0,0,1-9.017,3.9,11.711,11.711,0,0,1-10.025-5.042q-3.654-5.042-3.654-13.815,0-8.748,3.618-13.8a12.448,12.448,0,0,1,18.926-1.3q3.3,3.754,3.7,10.729h-8.153a7.249,7.249,0,0,0-1.314-4.144,3.872,3.872,0,0,0-3.186-1.4,4.01,4.01,0,0,0-3.753,2.467q-1.251,2.467-1.251,7.448,0,4.885,1.332,7.387a4.218,4.218,0,0,0,3.906,2.5,3.735,3.735,0,0,0,3.141-1.531A8.09,8.09,0,0,0,328.812,285.962Z" transform="translate(-263.041 -263.119)"/>
        <path id="Caminho_3469" data-name="Caminho 3469" class="cls-1" d="M387.922,301.456V265.662h8.441V277.52l7.631-11.858h9.881l-9.467,13.2,10.691,22.6H404.949l-6.479-14.337-2.106,2.94v11.4Z" transform="translate(-312.349 -264.738)"/>
        <path id="Caminho_3470" data-name="Caminho 3470" class="cls-1" d="M518.636,301.456V265.662h8.081l7.433,16.646a14.077,14.077,0,0,1,.729,1.993q.387,1.288.819,3.11-.107-.947-.162-2.09t-.054-2.771V265.662H543.6v35.794h-8.117l-7.434-16.524a16.088,16.088,0,0,1-.747-2.066q-.4-1.336-.819-3.062.125.948.18,1.981t.054,2.9v16.767Z" transform="translate(-395.587 -264.738)"/>
        <path id="Caminho_3471" data-name="Caminho 3471" class="cls-1" d="M613.907,299.837l-.414-3.086a9.228,9.228,0,0,1-3.474,3.074,10.539,10.539,0,0,1-4.734,1.008,10.176,10.176,0,0,1-8.964-5.042q-3.276-5.042-3.275-13.815,0-8.967,3.654-13.912a12,12,0,0,1,10.241-4.945,10.79,10.79,0,0,1,8.36,3.475q3.177,3.475,3.771,9.793h-8.081a6.7,6.7,0,0,0-1.575-3.257,3.608,3.608,0,0,0-2.691-1.118,4.075,4.075,0,0,0-3.825,2.649q-1.269,2.649-1.269,7.9,0,4.861,1.278,7.266a4.148,4.148,0,0,0,3.888,2.406,4.568,4.568,0,0,0,3.177-1.179,5.169,5.169,0,0,0,1.611-3.171h-3.834v-7.654H619.4v19.61Z" transform="translate(-442.971 -263.119)"/>
      </g>
      <g id="Grupo_16362" data-name="Grupo 16362" transform="translate(106.335 1.262)">
        <path id="Caminho_3472" data-name="Caminho 3472" class="cls-2" d="M480.153,352.356l.011,3.085,2.555,0a1.972,1.972,0,0,1,1.936-1.091,2.117,2.117,0,0,1,1.963,1.084l2.337,0-.006-3.1Z" transform="translate(-477.416 -321.189)"/>
        <path id="Caminho_3473" data-name="Caminho 3473" class="cls-2" d="M486.52,361.928a3.427,3.427,0,0,1-1.971.423c-.908,0-1.5-.143-1.723-.416l-2.648,0-.021.247c.007.233.1.441.41.42l7.987.016c.326.016.4-.279.4-.455l-.008-.243Z" transform="translate(-477.417 -327.299)"/>
        <path id="Caminho_3474" data-name="Caminho 3474" class="cls-2" d="M486.287,266.734a.151.151,0,0,0-.15-.141h0a.144.144,0,0,0-.08.032l-13.175.024a.142.142,0,0,0-.062-.024h0a.151.151,0,0,0-.146.146l-.052,1.642,2.427,28.948a.152.152,0,0,0,.15.139h.012l.115-.009h0l8.652-.016a.145.145,0,0,0,.064.016h0l.207,0a.15.15,0,0,0,.147-.141l1.994-28.981Zm-12.968,4.158,12.384-.022L484.09,294.4l-8.782.016Zm12.606-4.012v.724l-.019.28h-.137l0-1Zm-.394,0q0,.5,0,1h-.156l0-1Zm-.393,0,0,1h-.156q0-.5,0-1Zm-.394,0q0,.5,0,1h-.157v-1Zm-.394,0q0,.5,0,1H484.2q0-.5,0-1Zm-.394,0,0,1H483.8q0-.5,0-1Zm-.4,0,0,1h-.156l0-1Zm-.4,0,0,1h-.156l0-1Zm-.4,0q0,.5,0,1h-.157l0-1Zm-.4,0,0,1h-.157l0-1Zm-.4,0q0,.5,0,1h-.156l0-1Zm-.4,0q0,.5,0,1h-.156q0-.5,0-1Zm-.4,0q0,.5,0,1h-.157q0-.5,0-1Zm-.4,0q0,.5,0,1h-.157q0-.5,0-1Zm-.4,0,0,1h-.156q0-.5,0-1Zm-.4,0,0,1h-.157v-1Zm-.4,0,0,1h-.157q0-.5,0-1Zm-.4,0v1h-.156l0-1Zm-.4,0,0,1h-.156l0-1Zm-.4,0,0,1h-.157v-1Zm-.4,0,0,1h-.157q0-.5,0-1Zm-.4,0v1h-.156l0-1Zm-.4,0,0,1h-.156l0-1Zm-.4,0,0,1h-.157v-1Zm-.4,0q0,.5,0,1h-.157q0-.5,0-1Zm-.4,0,0,1h-.156l0-1Zm-.4,0q0,.5,0,1h-.156q0-.5,0-1Zm-.4,0,0,1h-.157q0-.5,0-1Zm-.4,0,0,1h-.157l0-1Zm-.4,0,0,1h-.156l0-1Zm-.4,0,0,1h-.156l0-1Zm-.4,0,0,1h-.157l0-1Zm-.4,0,0,1H473.1l0-1Z" transform="translate(-472.618 -266.593)"/>
      </g>
    </g>
  </g>
  <g id="Grupo_16365" data-name="Grupo 16365" transform="translate(66.094 133.951)">
    <path id="Caminho_3475" data-name="Caminho 3475" class="cls-2" d="M181.971,385.86v-8.83h3.9a4.414,4.414,0,0,1,2.613.594,2.291,2.291,0,0,1,.783,1.948,2.569,2.569,0,0,1-.321,1.343,2.189,2.189,0,0,1-.99.845,1.549,1.549,0,0,1,.99.614,2.525,2.525,0,0,1,.332,1.346l.044,1.229a.106.106,0,0,0,.005.03q.016.527.232.552v.329h-2.638q-.072-.318-.108-.554a2.631,2.631,0,0,1-.036-.369v-.882a1.447,1.447,0,0,0-.249-.962,1.115,1.115,0,0,0-.863-.279h-1.112v3.045Zm2.583-5.035h1.189a1.479,1.479,0,0,0,.863-.183.759.759,0,0,0,.238-.639.775.775,0,0,0-.238-.65,1.637,1.637,0,0,0-.929-.183h-1.123Z" transform="translate(-181.971 -374.039)"/>
    <path id="Caminho_3476" data-name="Caminho 3476" class="cls-2" d="M211.047,376.211a4.864,4.864,0,0,1,1.136-3.4,4.466,4.466,0,0,1,6.191,0,5.675,5.675,0,0,1,0,6.806,4.458,4.458,0,0,1-6.191,0A4.865,4.865,0,0,1,211.047,376.211Zm2.638,0a3.417,3.417,0,0,0,.387,1.84,1.346,1.346,0,0,0,1.211.588,1.331,1.331,0,0,0,1.2-.584,4.659,4.659,0,0,0,0-3.692,1.33,1.33,0,0,0-1.2-.584,1.347,1.347,0,0,0-1.211.587A3.432,3.432,0,0,0,213.685,376.211Zm3.285-7.415-1.8,2.217h-.852l1.062-2.217Z" transform="translate(-200.486 -368.796)"/>
    <path id="Caminho_3477" data-name="Caminho 3477" class="cls-2" d="M244.478,385.86v-6.5h-2.345V377.03h7.305v2.326h-2.345v6.5Z" transform="translate(-220.282 -374.039)"/>
    <path id="Caminho_3478" data-name="Caminho 3478" class="cls-2" d="M270.752,377.03h2.616v5.443a1.592,1.592,0,0,0,.29,1.076,1.259,1.259,0,0,0,.97.32,1.228,1.228,0,0,0,.949-.315,1.611,1.611,0,0,0,.285-1.082V377.03h2.616v5.665a3.21,3.21,0,0,1-.987,2.536,5.141,5.141,0,0,1-5.743,0,3.2,3.2,0,0,1-1-2.533Z" transform="translate(-238.506 -374.039)"/>
    <path id="Caminho_3479" data-name="Caminho 3479" class="cls-2" d="M302.461,385.86v-8.83h2.616v6.486h3.556v2.344Z" transform="translate(-258.698 -374.039)"/>
    <path id="Caminho_3480" data-name="Caminho 3480" class="cls-2" d="M326.558,381.055a4.864,4.864,0,0,1,1.137-3.4,4.466,4.466,0,0,1,6.191,0,5.674,5.674,0,0,1,0,6.806,4.457,4.457,0,0,1-6.191,0A4.865,4.865,0,0,1,326.558,381.055Zm2.638,0a3.417,3.417,0,0,0,.387,1.84,1.347,1.347,0,0,0,1.211.588,1.329,1.329,0,0,0,1.2-.584,4.655,4.655,0,0,0,0-3.692,1.329,1.329,0,0,0-1.2-.584,1.347,1.347,0,0,0-1.211.587A3.432,3.432,0,0,0,329.2,381.055Z" transform="translate(-274.042 -373.64)"/>
    <path id="Caminho_3481" data-name="Caminho 3481" class="cls-2" d="M358.328,382.709h2.544a1.131,1.131,0,0,0,.382.689,1.353,1.353,0,0,0,.824.21,1.314,1.314,0,0,0,.722-.171.534.534,0,0,0,.263-.47q0-.479-1.1-.779l-.337-.09q-.9-.252-1.435-.458a3.5,3.5,0,0,1-.777-.386,2.348,2.348,0,0,1-.705-.875,2.742,2.742,0,0,1-.235-1.163,2.523,2.523,0,0,1,.912-2.062,4.6,4.6,0,0,1,4.983-.033,2.8,2.8,0,0,1,1.018,2.053H362.9a.853.853,0,0,0-.318-.581,1.209,1.209,0,0,0-.733-.192,1.059,1.059,0,0,0-.625.15.528.528,0,0,0-.2.455q0,.438,1.073.732c.063.02.111.034.144.042l.47.126a6.651,6.651,0,0,1,1.858.707,2.469,2.469,0,0,1,.791.888,2.6,2.6,0,0,1,.249,1.175,2.76,2.76,0,0,1-.943,2.248,4.117,4.117,0,0,1-2.7.785,3.9,3.9,0,0,1-2.569-.785A3.055,3.055,0,0,1,358.328,382.709Z" transform="translate(-294.273 -373.64)"/>
    <path id="Caminho_3482" data-name="Caminho 3482" class="cls-2" d="M404.345,385.86v-8.83h6.509v2.116h-3.894v1.175h3.291v2.026h-3.291v1.367h4.054v2.146Z" transform="translate(-323.576 -374.039)"/>
    <path id="Caminho_3483" data-name="Caminho 3483" class="cls-2" d="M448.809,385.86v-8.83h3.34a14.611,14.611,0,0,1,1.571.06,3.532,3.532,0,0,1,.846.2,1.937,1.937,0,0,1,.949.785,2.424,2.424,0,0,1,.329,1.295,2.137,2.137,0,0,1-.246,1.046,1.932,1.932,0,0,1-.738.734,1.879,1.879,0,0,1,.957.755,2.468,2.468,0,0,1,.309,1.307,2.914,2.914,0,0,1-.3,1.363,2.091,2.091,0,0,1-.876.89,2.84,2.84,0,0,1-.885.306,10.469,10.469,0,0,1-1.648.09Zm2.539-5.305h1.078a1.265,1.265,0,0,0,.763-.174.7.7,0,0,0,.221-.587.675.675,0,0,0-.238-.6,2.325,2.325,0,0,0-1.1-.162h-.724Zm0,3.243h1.211a1.459,1.459,0,0,0,.857-.192.738.738,0,0,0,.254-.63.713.713,0,0,0-.26-.623,1.55,1.55,0,0,0-.874-.186h-1.189Z" transform="translate(-351.89 -374.039)"/>
    <path id="Caminho_3484" data-name="Caminho 3484" class="cls-2" d="M478.8,385.86v-8.83h2.666v8.83Z" transform="translate(-370.987 -374.039)"/>
    <path id="Caminho_3485" data-name="Caminho 3485" class="cls-2" d="M495.707,382.709h2.544a1.131,1.131,0,0,0,.382.689,1.352,1.352,0,0,0,.824.21,1.314,1.314,0,0,0,.722-.171.534.534,0,0,0,.263-.47q0-.479-1.1-.779L499,382.1q-.9-.252-1.435-.458a3.519,3.519,0,0,1-.777-.386,2.351,2.351,0,0,1-.7-.875,2.742,2.742,0,0,1-.235-1.163,2.522,2.522,0,0,1,.912-2.062,4.6,4.6,0,0,1,4.983-.033,2.8,2.8,0,0,1,1.018,2.053h-2.483a.853.853,0,0,0-.318-.581,1.209,1.209,0,0,0-.733-.192,1.059,1.059,0,0,0-.625.15.528.528,0,0,0-.2.455q0,.438,1.073.732.094.03.144.042l.47.126a6.651,6.651,0,0,1,1.858.707,2.468,2.468,0,0,1,.791.888,2.6,2.6,0,0,1,.249,1.175,2.759,2.759,0,0,1-.943,2.248,4.115,4.115,0,0,1-2.7.785,3.9,3.9,0,0,1-2.569-.785A3.055,3.055,0,0,1,495.707,382.709Z" transform="translate(-381.755 -373.64)"/>
    <path id="Caminho_3486" data-name="Caminho 3486" class="cls-2" d="M525.225,385.86v-8.83h2.483l2.284,4.106a3.116,3.116,0,0,1,.224.492q.119.318.251.767-.033-.234-.049-.515c-.012-.188-.017-.416-.017-.684V377.03H532.9v8.83H530.4l-2.284-4.076a3.4,3.4,0,0,1-.23-.509q-.125-.33-.252-.755a4.916,4.916,0,0,1,.056.489q.016.254.017.716v4.136Z" transform="translate(-400.551 -374.039)"/>
    <path id="Caminho_3487" data-name="Caminho 3487" class="cls-2" d="M554.636,385.86l2.865-8.83h2.649l2.865,8.83h-2.594l-.3-1.169h-2.594l-.315,1.169ZM558,382.839h1.643l-.813-3.057Z" transform="translate(-419.28 -374.039)"/>
    <path id="Caminho_3488" data-name="Caminho 3488" class="cls-2" d="M591.446,385.46l-.127-.761a2.734,2.734,0,0,1-1.067.758,3.924,3.924,0,0,1-1.455.249,3.351,3.351,0,0,1-2.754-1.244,5.266,5.266,0,0,1-1.007-3.408,4.88,4.88,0,0,1,1.123-3.432,4.063,4.063,0,0,1,3.147-1.22,3.75,3.75,0,0,1,2.569.858,3.64,3.64,0,0,1,1.159,2.415H590.55a1.556,1.556,0,0,0-.484-.8,1.258,1.258,0,0,0-.827-.276,1.28,1.28,0,0,0-1.175.653,3.874,3.874,0,0,0-.39,1.948,3.282,3.282,0,0,0,.393,1.792,1.334,1.334,0,0,0,1.195.594,1.619,1.619,0,0,0,.976-.291,1.214,1.214,0,0,0,.495-.782h-1.178v-1.888h3.578v4.837Z" transform="translate(-438.638 -373.64)"/>
    <path id="Caminho_3489" data-name="Caminho 3489" class="cls-2" d="M615.436,385.86l2.865-8.83h2.649l2.865,8.83H621.22l-.3-1.169h-2.594l-.315,1.169Zm3.362-3.021h1.643l-.813-3.057Z" transform="translate(-457.997 -374.039)"/>
    <path id="Caminho_3490" data-name="Caminho 3490" class="cls-2" d="M645.745,382.709h2.544a1.131,1.131,0,0,0,.382.689,1.352,1.352,0,0,0,.824.21,1.314,1.314,0,0,0,.722-.171.534.534,0,0,0,.263-.47q0-.479-1.1-.779l-.337-.09q-.9-.252-1.435-.458a3.505,3.505,0,0,1-.777-.386,2.348,2.348,0,0,1-.705-.875,2.742,2.742,0,0,1-.235-1.163,2.523,2.523,0,0,1,.912-2.062,4.6,4.6,0,0,1,4.983-.033,2.8,2.8,0,0,1,1.018,2.053h-2.483a.853.853,0,0,0-.318-.581,1.209,1.209,0,0,0-.733-.192,1.059,1.059,0,0,0-.625.15.528.528,0,0,0-.2.455q0,.438,1.073.732.094.03.144.042l.47.126a6.65,6.65,0,0,1,1.858.707,2.469,2.469,0,0,1,.791.888,2.6,2.6,0,0,1,.249,1.175,2.76,2.76,0,0,1-.943,2.248,4.117,4.117,0,0,1-2.7.785,3.9,3.9,0,0,1-2.569-.785A3.055,3.055,0,0,1,645.745,382.709Z" transform="translate(-477.297 -373.64)"/>
  </g>
</svg>
